<?xml version="1.0" encoding="utf-8"?>
<!-- Generator: Adobe Illustrator 15.1.0, SVG Export Plug-In . SVG Version: 6.00 Build 0)  -->
<!DOCTYPE svg PUBLIC "-//W3C//DTD SVG 1.1//EN" "http://www.w3.org/Graphics/SVG/1.1/DTD/svg11.dtd">
<svg version="1.1" id="Ebene_1" xmlns="http://www.w3.org/2000/svg" xmlns:xlink="http://www.w3.org/1999/xlink" x="0px" y="0px"
	 width="158.926px" height="56.505px" viewBox="0 0.001 158.926 56.505" enable-background="new 0 0.001 158.926 56.505"
	 xml:space="preserve">
<g>
	<g>
		<g>
			<path fill="#900055" d="M14.098,8.189c0.333-1.244,3.123-2.749,3.548-1.414c0.478,1.497-0.389,2.819-1.892,4.302
				c-3.017,2.978-10.772,1.852-5.549-5.35c2.854-3.936,9.279-4.376,12.172-4.376c3.032,0,5.148,0.47,6.687,1.251
				c-4.661,2.134-8.384,6.44-11.507,13.076c-1.148,0.138-2.664,0.482-4.546,1.033c-0.621,0.184-0.93,0.447-0.93,0.792
				c0,0.23,0.172,0.344,0.516,0.344c0.093,0,0.322-0.057,0.689-0.172c1.309-0.413,2.537-0.677,3.686-0.792
				c-1.287,3.005-2.562,5.287-3.825,6.847C11.172,26.186,9,27.414,6.634,27.414c-0.805,0-1.643-0.195-2.515-0.585
				c-1.058-0.481-1.585-1.068-1.585-1.753c0-0.414,0.343-0.724,1.031-0.93c1.19-0.343,1.734-0.339,1.878-0.728
				c0.086-0.229-1.466-4.02-1.466-4.02s-1.855,0.261-2.784,1.188c-0.752,0.751-1.064,1.762-1.064,2.91
				c0,1.654,0.758,2.938,2.271,3.857c1.262,0.734,2.789,1.102,4.579,1.102c3.719,0,7.001-1.183,9.847-3.549
				c2.663-2.182,4.625-5.111,5.886-8.788c2.869-0.275,5.417-1.045,7.644-2.309c2.823-1.607,4.235-3.665,4.235-6.168
				c0-2.206-1.098-3.972-2.927-5.212c0.826-0.23,1.278-0.359,1.667-0.474c0.987-0.275,1.48-0.483,1.48-0.621
				c0-0.274-0.184-0.414-0.551-0.414c-0.94,0-2.01,0.324-3.64,0.97c-1.424-0.758-4.203-1.802-8.449-1.76
				C10.985,0.242,7.052,7.71,7.236,10.526c0.08,1.215,0.473,3.996,4.264,4.161c1.318,0.058,5.267-0.291,7.182-5.045
				c0.556-1.38,0.663-4.19-2.091-4.877c-1.539-0.383-5.164,0.164-5.886,2.943C10.622,8.023,14.098,8.189,14.098,8.189z
				 M23.206,15.024c1.007-2.962,1.866-5.176,2.576-6.647c1.372-2.801,2.584-4.458,4.049-5.192c0.864,0.666,1.17,1.473,1.17,2.644
				c0,2.204-0.756,4.207-2.267,6.009C27.223,13.64,25.381,14.703,23.206,15.024z"/>
			<path fill="#900055" d="M14.223,8.221c0.215-0.803,1.649-1.817,2.601-1.838c0.37-0.009,0.607,0.136,0.7,0.43
				c0.403,1.263-0.136,2.471-1.859,4.173c-1.65,1.629-4.83,2.002-6.3,0.739c-0.771-0.662-1.674-2.312,0.945-5.923
				c2.728-3.761,8.731-4.322,12.067-4.322c2.82,0,4.989,0.404,6.628,1.237l0.004-0.231C24.39,4.601,20.605,8.898,17.44,15.623
				l0.101-0.073c-1.152,0.14-2.688,0.488-4.567,1.039c-0.679,0.201-1.023,0.509-1.023,0.915c0,0.177,0.084,0.473,0.645,0.473
				c0.069,0,0.219-0.018,0.727-0.178c1.296-0.409,2.529-0.672,3.662-0.786l-0.131-0.179c-1.276,2.979-2.557,5.274-3.807,6.817
				c-1.941,2.411-4.098,3.633-6.413,3.633c-0.784,0-1.612-0.192-2.463-0.573c-1-0.456-1.508-1.006-1.508-1.636
				c0-0.348,0.315-0.619,0.938-0.806c0.328-0.095,0.604-0.161,0.844-0.221c0.64-0.157,0.991-0.241,1.119-0.586
				c0.084-0.228-0.752-2.362-1.469-4.112l-0.038-0.093L3.96,19.271c-0.079,0.011-1.911,0.278-2.857,1.225
				C0.37,21.227,0,22.236,0,23.496c0,1.694,0.786,3.028,2.333,3.967c1.278,0.744,2.84,1.12,4.646,1.12
				c3.732,0,7.074-1.205,9.929-3.58c2.669-2.187,4.663-5.162,5.926-8.844l-0.109,0.085c2.873-0.276,5.462-1.058,7.694-2.325
				c2.854-1.624,4.3-3.737,4.3-6.28c0-2.156-1.031-3.996-2.983-5.319l-0.038,0.231l1.67-0.475c1.453-0.406,1.573-0.583,1.573-0.744
				c0-0.202-0.088-0.541-0.68-0.541c-1.016,0-2.164,0.373-3.688,0.978l0.108,0.006c-1.28-0.683-4.087-1.819-8.512-1.774
				c-6.629,0.065-10.408,2.655-12.41,4.815c-1.954,2.107-2.74,4.389-2.653,5.715c0.18,2.723,1.656,4.164,4.387,4.282
				c0.861,0.036,5.256-0.036,7.306-5.125c0.376-0.933,0.505-2.363-0.053-3.458c-0.412-0.809-1.127-1.344-2.125-1.593
				c-1.721-0.43-5.313,0.235-6.042,3.035c-0.014,0.052-0.002,0.104,0.03,0.149c0.225,0.306,2.51,0.446,3.482,0.491l0.103,0.006
				L14.223,8.221z M10.829,7.74c0.676-2.6,4.14-3.247,5.73-2.85c0.924,0.229,1.583,0.721,1.959,1.459
				c0.521,1.023,0.397,2.367,0.044,3.246c-1.936,4.804-5.892,5.013-7.057,4.963c-2.579-0.112-3.971-1.473-4.141-4.042
				C7.281,9.246,8.048,7.043,9.949,4.993c1.969-2.123,5.687-4.668,12.225-4.734c4.366-0.044,7.129,1.074,8.387,1.744l0.052,0.028
				L30.67,2.01c1.495-0.594,2.618-0.961,3.593-0.961c0.423,0,0.423,0.193,0.423,0.285c0-0.015,0.004-0.024,0.005-0.026
				c-0.018,0.027-0.167,0.181-1.392,0.523c-0.002,0-1.669,0.474-1.669,0.474l-0.265,0.075c-0.001,0,0.227,0.155,0.227,0.155
				c1.878,1.273,2.871,3.039,2.871,5.105c0,2.444-1.403,4.481-4.169,6.057c-2.2,1.249-4.754,2.021-7.592,2.293l-0.082,0.008
				l-0.027,0.077c-1.248,3.635-3.216,6.573-5.848,8.729c-2.809,2.336-6.095,3.521-9.765,3.521c-1.759,0-3.278-0.365-4.514-1.084
				c-1.464-0.888-2.208-2.149-2.208-3.746c0-1.188,0.346-2.137,1.027-2.818c0.887-0.887,2.693-1.15,2.71-1.152l0.007,0l0.007-0.001
				l-0.15-0.077c0.715,1.746,1.47,3.722,1.461,3.946c0,0,0-0.007,0.005-0.019c-0.076,0.207-0.327,0.275-0.938,0.424
				c-0.232,0.058-0.521,0.127-0.856,0.225c-0.747,0.224-1.124,0.578-1.124,1.053c0,0.738,0.559,1.368,1.66,1.87
				c0.886,0.396,1.75,0.596,2.569,0.596c2.396,0,4.622-1.254,6.613-3.729c1.264-1.562,2.558-3.875,3.842-6.877l0.086-0.201
				l-0.217,0.022c-1.149,0.115-2.398,0.383-3.711,0.797c-0.479,0.149-0.613,0.166-0.651,0.166c-0.387,0-0.387-0.151-0.387-0.215
				c0-0.28,0.282-0.504,0.838-0.669c1.864-0.545,3.387-0.892,4.525-1.029l0.07-0.008l0.03-0.064
				C20.81,9.066,24.555,4.809,29.117,2.718l0.242-0.111l-0.238-0.121c-1.677-0.852-3.883-1.264-6.744-1.264
				c-3.385,0-9.481,0.576-12.275,4.429c-2.74,3.778-1.743,5.549-0.904,6.27c1.587,1.364,4.88,0.991,6.647-0.752
				c1.319-1.302,2.465-2.74,1.924-4.434c-0.128-0.405-0.466-0.622-0.953-0.61c-1.08,0.025-2.593,1.106-2.842,2.03l0.131-0.095
				c-1.486-0.071-3.124-0.237-3.292-0.393C10.823,7.677,10.838,7.705,10.829,7.74z"/>
			<path fill="#900055" d="M23.328,15.066c1-2.945,1.864-5.176,2.568-6.633c1.428-2.911,2.622-4.447,3.992-5.134l-0.136-0.012
				c0.794,0.612,1.12,1.348,1.12,2.542c0,2.163-0.753,4.157-2.236,5.927c-1.483,1.769-3.317,2.824-5.449,3.141L23.328,15.066z
				 M28.833,11.921c1.524-1.817,2.296-3.867,2.296-6.092c0-1.267-0.364-2.088-1.22-2.747l-0.065-0.049l-0.071,0.036
				c-1.424,0.714-2.653,2.285-4.107,5.251c-0.708,1.467-1.578,3.708-2.583,6.662l-0.067,0.2l0.208-0.031
				C25.421,14.827,27.307,13.739,28.833,11.921z"/>
		</g>
		<g>
			<g>
				<path fill="#900055" d="M56.605,19.138c-0.396,0.466-0.981,1.472-1.738,2.988l0.243,0.057v-0.035l-0.255-0.023
					c-0.045,0.242-0.23,0.718-0.551,1.416c-0.286,0.61-0.43,1.127-0.43,1.535c0,0.527,0.291,0.817,0.819,0.817
					c1.562,0,3.136-1.555,4.811-4.754l0.087-0.167l-0.188-0.02c-1.227-0.134-2.073-0.719-2.584-1.789l-0.085-0.178L56.605,19.138z
					 M59.277,21.021c-1.605,3.062-3.146,4.615-4.584,4.615c-0.389,0-0.563-0.171-0.563-0.559c0-0.37,0.137-0.85,0.408-1.426
					c0.334-0.729,0.52-1.211,0.569-1.478l-0.255-0.024v0.036l0.244,0.058c0.749-1.499,1.322-2.487,1.704-2.937l-0.213-0.027
					c0.546,1.139,1.484,1.79,2.789,1.932L59.277,21.021z"/>
			</g>
			<g>
				<path fill="#900055" d="M59.708,16.467c-0.465,0-0.979,0.216-1.53,0.643c-0.561,0.434-0.846,0.895-0.846,1.366
					c0,0.473,0.254,0.919,0.754,1.331c0.491,0.405,0.988,0.61,1.477,0.61c0.059,0,0.13-0.013,0.212-0.041l0.089-0.029v-0.093V20.22
					l-0.129,0.128c0.284,0,0.516-0.365,0.753-1.188c0.168-0.61,0.25-1.081,0.25-1.438C60.737,16.685,60.177,16.467,59.708,16.467z
					 M60.478,17.724c0,0.328-0.08,0.788-0.24,1.369c-0.273,0.952-0.467,0.999-0.504,0.999h-0.128v0.129v0.035l0.088-0.123
					c-0.069,0.023-0.109,0.028-0.132,0.028c-0.427,0-0.869-0.186-1.313-0.553c-0.438-0.359-0.66-0.739-0.66-1.131
					c0-0.39,0.251-0.78,0.746-1.163c0.503-0.392,0.965-0.59,1.373-0.59C60.039,16.724,60.478,16.827,60.478,17.724z"/>
			</g>
			<g>
				<path fill="#900055" d="M32.294,19.654c-1.385,2.635-3.833,6.589-5.103,8.828c1.816,0,3.734-0.262,3.966-0.493
					c0.231-0.231,3.449-5.703,3.702-6.254c1.103-2.089,2.609-4.726,3.06-5.434c0.321-0.207,0.844-0.375,1.144-0.375
					c0.952,0,0.75,1.297,0.75,1.297c-0.114,1.172-1.292,2.992-2.536,5.253c-1.244,2.261-1.866,3.622-1.866,4.08
					c0,1.425,0.779,2.136,2.339,2.136c2.889,0,5.649-3.934,5.891-4.376c-0.229,0.387-0.407,1.75-0.407,2.278
					c0,0.573,0.189,1.074,0.568,1.498c0.379,0.426,0.858,0.681,1.431,0.637c1.948-0.148,4.946-4.067,5.154-4.335
					c-0.173,0.636-0.262,1.085-0.262,1.679c0,1.651,0.907,2.477,2.721,2.477c1.309,0,2.79-0.919,4.443-2.757
					c1.194-1.339,2.228-2.825,3.1-4.458c1.751,0,3.125-1.093,3.241-1.136l-2.413,4.565c-0.23,0.506-0.344,0.989-0.344,1.448
					c0,0.62,0.229,1.195,0.688,1.724c0.459,0.529,0.999,0.793,1.619,0.793c1.354,0,2.423-0.688,3.203-2.068
					c0,0.21,0.061,0.832,0.345,1.266c0.438,0.665,1.045,0.802,1.55,0.802c1.655,0,2.859-0.688,3.617-2.068
					c0,0.207,0.195,1.019,0.457,1.323c0.477,0.554,0.656,0.745,1.644,0.745c1.985,0,5.085-4.249,5.085-5.19
					c0-0.138-0.045-0.264-0.137-0.379h-0.137c-0.138,0.07-0.381,0.792-1.292,1.706c-1.373,1.372-1.245,1.167-1.46,1.167
					c-0.14,0-0.195-0.749,0.038-1.204c1.148-2.229,4.979-8.991,4.979-9.202c0-0.208-3.269,0.319-3.269,0.319
					c-0.588,1.107-2.117,3.739-3.049,5.472c-1.729,3.215-2.997,4.623-3.616,4.623c-0.185,0-0.563-0.384-0.563-1.212
					c0-0.36,1.159-2.508,2.287-4.715c0.782-1.533,2.193-4.35,2.056-4.487c-0.17-0.17-3.091,0.311-3.091,0.311
					c-3.058,5.926-5.353,10.095-6.294,10.095c-0.238,0-0.628-0.43-0.628-1.204c0-1.332,4.523-8.861,4.375-9.202
					c-0.099-0.221-3.224,0.32-3.224,0.32l-1.83,2.951c-0.166,0.494-1.888,1.643-3.423,1.437c0.516-1.4,0.774-2.342,0.774-2.825
					c0-1.446-0.782-2.169-2.346-2.169c-1.978,0-4.013,1.307-6.104,3.921c-0.981,1.235-2.025,3.105-2.254,3.427
					c-0.214,0.216-0.907,0.928-1.68,1.7c-1.001,1.004-1.72,1.695-2.101,1.62c-0.482-0.076-0.551-0.861-0.551-0.861
					c0.022-0.574,0.209-1.421,0.551-2.548c0.344-1.127,0.679-1.722,0.679-1.782c0,0,1.652-1.604,3-2.953
					c4.779-4.778,7.694-8.037,9.639-11.657c0.501-0.933,0.792-1.78,0.792-2.583c0-0.781-0.819-1.171-2.036-1.171
					c-2.503,0-5.626,2.307-8.953,7.128c-2.373,3.44-5.015,9.998-5.231,10.507c-0.177,0.42-1.076,2.438-1.162,2.672
					c-0.043,0.119-3.038,3.726-4.199,3.726c-0.459,0-0.698-0.394-0.609-0.814c0.028-0.135,0.407-1.008,1.604-3.28
					c1.196-2.273,1.795-3.95,1.795-5.029c0-0.621-0.167-1.154-0.5-1.601c-0.335-0.448-0.802-0.672-1.401-0.672
					c-1.125,0-2.167,0.205-2.167,0.205s1.119-1.928,2.732-4.708l3.541-5.812c-1.172-0.023-3.01,0.025-3.709,0.724
					c-0.498,0.499-4.123,6.379-6.931,11.22 M52.794,10.104c2.984-4.335,5.253-6.672,6.782-6.504c1.138,0.125-1.348,4.76-4.725,8.525
					c-2.908,3.243-5.292,5.586-7.196,7.373C48.48,17.228,50.269,13.773,52.794,10.104z M54.693,25.765
					c-0.461,0-0.69-0.229-0.69-0.689c0-0.392,0.139-1.017,0.419-1.615c0.326-0.71,1.892-3.781,2.282-4.241
					c0.528,1.103,1.607,1.722,2.687,1.86C57.755,24.204,56.19,25.765,54.693,25.765z M60.363,19.126
					c-0.248,0.691-0.52,1.089-0.52,1.089c-0.079,0.017-2.047-0.268-2.382-1.74c-0.097-0.422,0.265-0.854,0.795-1.264
					c0.53-0.412,1.014-0.617,1.451-0.617c0.6,0,0.899,0.377,0.899,1.129C60.607,18.066,60.569,18.548,60.363,19.126z"/>
				<path fill="#900055" d="M32.181,19.594c-0.879,1.675-2.194,3.889-3.354,5.845c-0.661,1.112-1.285,2.164-1.748,2.979l-0.11,0.192
					h0.223c1.63,0,3.757-0.233,4.057-0.531c0.261-0.26,3.492-5.778,3.728-6.291c1.108-2.096,2.616-4.734,3.052-5.42l-0.038,0.04
					c0.294-0.189,0.796-0.354,1.074-0.354c0.194,0,0.337,0.058,0.443,0.181c0.276,0.321,0.182,0.96,0.182,0.967
					c-0.089,0.907-0.826,2.207-1.759,3.851l-0.763,1.36c-1.267,2.302-1.883,3.658-1.883,4.142c0,1.503,0.831,2.266,2.468,2.266
					c2.903,0,5.684-3.861,6.003-4.443l-0.223-0.128c-0.26,0.44-0.425,1.861-0.425,2.343c0,0.604,0.202,1.137,0.601,1.583
					c0.435,0.488,0.966,0.723,1.536,0.68c1.829-0.14,4.468-3.38,5.233-4.369l0.011-0.017l-0.226-0.112
					c-0.171,0.636-0.265,1.096-0.265,1.713c0,1.729,0.958,2.605,2.851,2.605c1.339,0,2.866-0.941,4.537-2.799
					c1.195-1.341,2.244-2.849,3.118-4.485l-0.114,0.069c1.535,0,2.777-0.811,3.184-1.078c0.046-0.03,0.093-0.061,0.107-0.067
					l-0.163-0.177l-2.413,4.564c-0.241,0.527-0.36,1.032-0.36,1.508c0,0.651,0.243,1.259,0.721,1.81
					c0.482,0.554,1.059,0.836,1.715,0.836c1.398,0,2.514-0.717,3.315-2.133l-0.24-0.062c0,0.27,0.077,0.894,0.366,1.334
					c0.381,0.579,0.923,0.861,1.658,0.861c1.695,0,2.951-0.718,3.729-2.134l-0.241-0.062c0,0.208,0.198,1.067,0.488,1.406
					c0.516,0.6,0.727,0.79,1.742,0.79c2.071,0,5.214-4.349,5.214-5.318c0-0.167-0.056-0.321-0.166-0.459l-0.039-0.048h-0.062h-0.138
					h-0.03l-0.027,0.014c-0.081,0.041-0.137,0.136-0.25,0.328c-0.181,0.303-0.483,0.81-1.075,1.402
					c-1.101,1.102-1.202,1.149-1.281,1.138c-0.023-0.004-0.052-0.008-0.089-0.008c0.031,0,0.054,0.016,0.059,0.023
					c-0.062-0.086-0.101-0.662,0.094-1.04c0.525-1.018,1.598-2.961,2.636-4.84c1.962-3.554,2.358-4.299,2.358-4.42
					c0-0.045-0.019-0.085-0.053-0.116c-0.154-0.13-1.286-0.027-3.365,0.308l-0.063,0.011l-0.03,0.056
					c-0.275,0.516-0.766,1.386-1.287,2.308c-0.594,1.05-1.266,2.241-1.763,3.164c-1.807,3.363-3.016,4.556-3.503,4.556
					c-0.076,0-0.434-0.283-0.434-1.085c0-0.253,0.799-1.802,1.573-3.298l0.701-1.359c2.254-4.413,2.132-4.537,2.033-4.636
					c-0.145-0.145-1.222-0.051-3.204,0.274l-0.063,0.011l-0.031,0.057c-2.502,4.852-5.25,10.026-6.179,10.026
					c-0.149,0-0.5-0.366-0.5-1.075c0-0.76,1.647-3.831,2.849-6.072c1.376-2.568,1.589-3.014,1.516-3.182
					c-0.046-0.102-0.139-0.312-3.363,0.245l-0.058,0.01l-0.029,0.049l-1.831,2.951l-0.008,0.013l-0.005,0.014
					c-0.141,0.42-1.792,1.551-3.284,1.35l0.103,0.171c0.527-1.428,0.783-2.366,0.783-2.869c0-1.526-0.833-2.298-2.475-2.298
					c-2.009,0-4.098,1.335-6.206,3.97c-0.713,0.9-1.458,2.13-1.904,2.864c-0.164,0.27-0.293,0.482-0.354,0.569l0.015-0.017
					l-0.35,0.355l-1.33,1.344c-0.773,0.774-1.65,1.651-1.984,1.583c-0.376-0.058-0.448-0.739-0.449-0.745l0,0.017
					c0.021-0.553,0.2-1.377,0.545-2.517c0.242-0.796,0.481-1.328,0.598-1.583c0.068-0.151,0.086-0.191,0.086-0.235l-0.039,0.091
					c0.017-0.016,1.668-1.62,3.003-2.954c4.74-4.741,7.684-8.007,9.66-11.688c0.552-1.026,0.808-1.866,0.808-2.644
					c0-0.826-0.79-1.3-2.164-1.3c-2.683,0-5.816,2.486-9.058,7.186c-1.432,2.073-3.266,5.747-5.167,10.344l-0.077,0.185
					l-0.429,0.981c-0.319,0.727-0.68,1.547-0.734,1.697l0.006-0.014c-0.16,0.271-3.033,3.654-4.086,3.654
					c-0.163,0-0.294-0.058-0.385-0.168c-0.101-0.125-0.137-0.304-0.098-0.491c0.02-0.096,0.356-0.898,1.593-3.247
					c1.201-2.282,1.809-3.995,1.809-5.09c0-0.645-0.178-1.209-0.527-1.677c-0.359-0.48-0.864-0.725-1.503-0.725
					c-0.929,0-1.687,0.125-2.188,0.207l0.133,0.192l2.732-4.708c-0.002,0.001,3.54-5.81,3.54-5.81l0.116-0.192l-0.224-0.004
					c-2.005-0.039-3.25,0.21-3.801,0.762c-0.539,0.54-4.338,6.739-6.953,11.248l0.222,0.129C36.908,11.921,40.525,6.062,41,5.587
					c0.492-0.492,1.708-0.722,3.615-0.686l-0.107-0.195l-3.541,5.813c-0.002,0.001-2.732,4.71-2.732,4.71l-0.144,0.246l0.278-0.055
					c0.011-0.002,1.045-0.203,2.144-0.203c0.561,0,0.986,0.203,1.297,0.62c0.316,0.423,0.475,0.937,0.475,1.524
					c0,1.054-0.599,2.726-1.779,4.971c-1.21,2.296-1.585,3.163-1.617,3.313c-0.055,0.264,0,0.521,0.15,0.705
					c0.138,0.17,0.346,0.264,0.584,0.264c1.21,0,4.244-3.597,4.321-3.81c0.052-0.142,0.427-0.996,0.729-1.682l0.43-0.984
					l0.078-0.188c1.894-4.581,3.72-8.237,5.14-10.297c3.148-4.562,6.29-7.074,8.848-7.074c0.573,0,1.908,0.101,1.908,1.042
					c0,0.734-0.247,1.535-0.777,2.521c-1.962,3.653-4.893,6.905-9.617,11.629c-1.333,1.333-2.982,2.935-2.999,2.951l-0.04,0.037
					v0.055c0-0.014,0.002-0.022,0.002-0.022c-0.005,0.017-0.036,0.086-0.066,0.153c-0.117,0.26-0.362,0.802-0.609,1.613
					c-0.352,1.161-0.534,2.005-0.556,2.582l0,0.008l0,0.008c0.003,0.036,0.083,0.886,0.659,0.976
					c0.419,0.083,1.024-0.467,2.212-1.655l1.332-1.346l0.347-0.354l0.008-0.006c0,0,0.006-0.01,0.006-0.01
					c0.067-0.093,0.191-0.299,0.364-0.584c0.442-0.729,1.182-1.95,1.885-2.837c2.058-2.57,4.078-3.874,6.005-3.874
					c1.492,0,2.217,0.668,2.217,2.042c0,0.465-0.257,1.4-0.766,2.779l-0.055,0.15l0.159,0.021c1.626,0.22,3.381-0.983,3.562-1.523
					l-0.013,0.028l1.831-2.952l-0.088,0.059c1.385-0.24,2.93-0.438,3.119-0.353c-0.006-0.003-0.023-0.017-0.035-0.041
					c-0.009-0.018-0.008-0.03-0.008-0.031c-0.007,0.203-0.765,1.618-1.498,2.985c-1.282,2.393-2.879,5.371-2.879,6.195
					c0,0.858,0.448,1.331,0.757,1.331c0.979,0,3.007-3.572,6.408-10.165l-0.093,0.067c1.331-0.218,2.817-0.401,3.001-0.331
					c-0.001,0-0.01-0.004-0.021-0.014c-0.023-0.023-0.029-0.049-0.029-0.057c0.005,0.175-0.533,1.421-2.05,4.392l-0.7,1.359
					c-1.022,1.979-1.601,3.113-1.601,3.416c0,0.863,0.409,1.34,0.691,1.34c0.768,0,2.127-1.709,3.729-4.691
					c0.495-0.92,1.167-2.11,1.759-3.159c0.523-0.922,1.014-1.794,1.29-2.313l-0.092,0.067c1.413-0.228,2.988-0.423,3.174-0.354
					c-0.019-0.007-0.054-0.041-0.054-0.093c0-0.013,0.001-0.02,0.002-0.02c-0.052,0.193-1.262,2.384-2.33,4.316
					c-1.039,1.881-2.112,3.826-2.638,4.847c-0.22,0.428-0.21,1.087-0.086,1.29c0.054,0.089,0.125,0.101,0.163,0.101
					c0.017,0,0.032,0.003,0.05,0.006c0.205,0.03,0.254,0.037,1.5-1.21c0.615-0.614,0.926-1.14,1.114-1.453
					c0.059-0.098,0.125-0.21,0.152-0.232c0,0-0.002,0.002-0.006,0.004l-0.058,0.014h0.137l-0.101-0.048
					c0.075,0.092,0.111,0.19,0.111,0.299c0,0.903-3.056,5.062-4.958,5.062c-0.944,0-1.097-0.177-1.547-0.702
					c-0.234-0.273-0.426-1.055-0.426-1.238V26.16l-0.241,0.44c-0.739,1.346-1.886,2.001-3.503,2.001
					c-0.642,0-1.113-0.244-1.442-0.747c-0.266-0.403-0.323-0.998-0.323-1.193v-0.489l-0.241,0.425
					c-0.754,1.329-1.793,2.003-3.092,2.003c-0.586,0-1.085-0.245-1.522-0.75c-0.437-0.501-0.658-1.053-0.658-1.639
					c0-0.439,0.112-0.91,0.333-1.395c-0.002,0.007,2.41-4.559,2.41-4.559l0.156-0.295l-0.313,0.115
					c-0.03,0.012-0.06,0.031-0.154,0.092c-0.392,0.257-1.585,1.036-3.043,1.036h-0.077l-0.037,0.068
					c-0.864,1.617-1.901,3.108-3.083,4.434c-1.62,1.8-3.082,2.713-4.345,2.713c-1.747,0-2.593-0.768-2.593-2.348
					c0-0.588,0.089-1.033,0.257-1.646l-0.225-0.111l-0.014,0.016c-0.533,0.69-3.282,4.135-5.049,4.27
					c-0.495,0.037-0.94-0.164-1.325-0.595c-0.354-0.398-0.536-0.873-0.536-1.413c0-0.511,0.181-1.857,0.39-2.212l-0.223-0.128
					c-0.31,0.566-2.999,4.312-5.778,4.312c-1.488,0-2.211-0.657-2.211-2.007c0-0.3,0.321-1.241,1.851-4.019l0.762-1.357
					c0.948-1.672,1.696-2.992,1.79-3.946c0.004-0.023,0.112-0.755-0.241-1.168c-0.154-0.18-0.369-0.27-0.637-0.27
					c-0.33,0-0.873,0.176-1.214,0.396l-0.023,0.015l-0.016,0.023c-0.438,0.689-1.952,3.337-3.065,5.444
					c-0.281,0.607-3.475,6.01-3.68,6.223c-0.18,0.18-1.987,0.455-3.875,0.455l0.112,0.194c0.461-0.814,1.084-1.865,1.745-2.978
					c1.161-1.957,2.478-4.175,3.361-5.855L32.181,19.594z"/>
				<path fill="#900055" d="M52.9,10.176c3.09-4.493,5.271-6.602,6.663-6.449c0.071,0.008,0.112,0.039,0.138,0.106
					c0.317,0.832-1.946,4.862-4.945,8.205c-3.143,3.504-5.607,5.882-7.189,7.366l0.209,0.137
					C48.703,16.995,50.618,13.494,52.9,10.176z M47.742,19.592c1.584-1.488,4.056-3.87,7.205-7.381
					c2.913-3.248,5.384-7.443,4.993-8.468c-0.061-0.159-0.183-0.252-0.351-0.271c-1.515-0.166-3.708,1.918-6.902,6.559
					c-2.292,3.334-4.22,6.857-5.154,9.424L47.742,19.592z"/>
				<path fill="#900055" d="M54.693,25.635c-0.389,0-0.563-0.171-0.563-0.559c0-0.318,0.107-0.919,0.408-1.559
					c0.345-0.755,1.892-3.777,2.264-4.214l-0.215-0.028c0.504,1.051,1.545,1.773,2.787,1.932l-0.097-0.188
					C57.672,24.083,56.131,25.635,54.693,25.635z M59.407,20.953c-1.155-0.148-2.122-0.815-2.588-1.789l-0.085-0.178l-0.129,0.15
					c-0.408,0.482-1.995,3.606-2.3,4.271c-0.262,0.559-0.431,1.213-0.431,1.667c0,0.527,0.291,0.817,0.819,0.817
					c1.563,0,3.136-1.555,4.811-4.754l0.085-0.164L59.407,20.953z"/>
				<path fill="#900055" d="M60.242,19.082c-0.238,0.667-0.502,1.057-0.504,1.06l0.078-0.053l0.018-0.003
					c-0.02,0.001-1.926-0.233-2.247-1.639c-0.073-0.317,0.171-0.688,0.749-1.134c0.503-0.392,0.965-0.589,1.373-0.589
					c0.331,0,0.771,0.104,0.771,1C60.478,18.193,60.401,18.637,60.242,19.082z M60.737,17.724c0-1.039-0.559-1.257-1.029-1.257
					c-0.465,0-0.979,0.216-1.53,0.643c-0.665,0.514-0.939,0.97-0.842,1.396c0.354,1.552,2.415,1.862,2.535,1.836l0.051-0.011
					l0.028-0.043c0.011-0.017,0.285-0.419,0.535-1.117C60.653,18.696,60.737,18.223,60.737,17.724z"/>
			</g>
			<g>
				<path fill="#900055" d="M32.46,19.551c-0.301-0.133-1.189,0.517-2.418,1.909c-0.7,0.794-1.55,1.553-2.29,2.291
					c-2.465,2.4-7.051,5.096-7.447,4.993c-0.294-0.077,0.546-2.508,0.546-2.508c1.459-0.424,2.59-0.895,3.397-1.411
					c1.03-0.673,2.131-1.278,3.454-2.578c2.464-2.421,6.07-5.576,6.619-6.125"/>
				<path fill="#900055" d="M32.511,19.433c-0.553-0.244-1.979,1.277-2.565,1.942c-0.473,0.537-1.02,1.062-1.548,1.569
					c-0.246,0.235-0.5,0.479-0.737,0.716c-2.435,2.37-6.907,4.983-7.331,4.958c0,0,0.003,0.001,0.007,0.001
					c0.024,0.006,0.039,0.024,0.042,0.031c-0.079-0.177,0.247-1.369,0.594-2.372l-0.084,0.081c1.459-0.426,2.613-0.906,3.429-1.427
					c0,0,0.53-0.339,0.53-0.339c0.903-0.574,1.837-1.165,2.945-2.255c1.62-1.59,3.741-3.507,5.146-4.775
					c0.745-0.673,1.284-1.16,1.474-1.35l-0.182-0.181c-0.185,0.185-0.723,0.67-1.465,1.34c-1.406,1.27-3.531,3.188-5.152,4.782
					c-1.09,1.071-2.012,1.657-2.904,2.222l-0.532,0.34c-0.793,0.507-1.926,0.978-3.362,1.396l-0.063,0.019l-0.022,0.063
					c-0.231,0.667-0.75,2.255-0.578,2.576c0.025,0.05,0.069,0.085,0.12,0.097c0.497,0.129,5.179-2.699,7.567-5.024
					c0.237-0.235,0.491-0.48,0.735-0.713c0.533-0.511,1.083-1.04,1.563-1.585c1.332-1.508,2.099-1.952,2.269-1.877L32.511,19.433z"
					/>
			</g>
		</g>
	</g>
</g>
</svg>
