<?xml version="1.0" encoding="utf-8"?>
<!-- Generator: Adobe Illustrator 15.1.0, SVG Export Plug-In . SVG Version: 6.00 Build 0)  -->
<!DOCTYPE svg PUBLIC "-//W3C//DTD SVG 1.1//EN" "http://www.w3.org/Graphics/SVG/1.1/DTD/svg11.dtd">
<svg version="1.1" id="Ebene_1" xmlns="http://www.w3.org/2000/svg" xmlns:xlink="http://www.w3.org/1999/xlink" x="0px" y="0px"
	 width="101.723px" height="22.75px" viewBox="0 0 101.723 22.75" enable-background="new 0 0 101.723 22.75" xml:space="preserve">
<g>
	<path fill="#901457" d="M1.235,14.056c0.577,0.609,1.256,1.099,2.038,1.47c0.782,0.37,1.593,0.555,2.433,0.555
		c1.07,0,1.902-0.243,2.495-0.729c0.593-0.486,0.89-1.124,0.89-1.914c0-0.412-0.071-0.762-0.21-1.05
		c-0.141-0.288-0.331-0.535-0.569-0.741c-0.239-0.205-0.522-0.391-0.852-0.555c-0.33-0.165-0.684-0.338-1.062-0.519L4.076,9.56
		C3.697,9.396,3.311,9.198,2.915,8.967c-0.395-0.231-0.75-0.511-1.062-0.84C1.54,7.798,1.285,7.407,1.087,6.954
		C0.89,6.501,0.791,5.978,0.791,5.385c0-0.609,0.127-1.177,0.383-1.705C1.429,3.154,1.783,2.697,2.236,2.31
		c0.453-0.386,0.988-0.687,1.605-0.902C4.459,1.194,5.138,1.087,5.88,1.087c0.971,0,1.869,0.185,2.692,0.556
		c0.824,0.37,1.523,0.852,2.1,1.445L9.56,4.422C9.066,3.945,8.519,3.57,7.917,3.298S6.637,2.89,5.88,2.89
		c-0.906,0-1.635,0.21-2.187,0.63S2.866,4.521,2.866,5.262c0,0.395,0.078,0.728,0.235,1c0.157,0.271,0.367,0.511,0.63,0.716
		c0.264,0.207,0.552,0.387,0.865,0.543c0.312,0.157,0.633,0.3,0.962,0.432l2.298,0.989c0.46,0.197,0.897,0.424,1.309,0.679
		c0.411,0.256,0.766,0.552,1.062,0.89c0.296,0.337,0.531,0.732,0.705,1.186c0.172,0.453,0.259,0.976,0.259,1.568
		c0,0.643-0.128,1.244-0.383,1.803c-0.256,0.561-0.622,1.05-1.099,1.47c-0.478,0.42-1.054,0.75-1.729,0.988
		c-0.676,0.238-1.441,0.358-2.297,0.358c-1.136,0-2.19-0.214-3.162-0.642C1.548,16.814,0.708,16.229,0,15.489L1.235,14.056z"/>
	<path fill="#901457" d="M15.217,3.112c-0.395,0-0.729-0.124-1-0.37c-0.272-0.248-0.408-0.56-0.408-0.939
		c0-0.396,0.136-0.712,0.408-0.951c0.271-0.239,0.605-0.358,1-0.358s0.729,0.12,1,0.358c0.271,0.238,0.407,0.555,0.407,0.951
		c0,0.379-0.136,0.691-0.407,0.939C15.946,2.989,15.612,3.112,15.217,3.112z M14.179,5.583h2.026v12.005h-2.026V5.583z"/>
	<path fill="#901457" d="M20.255,5.583h1.68l0.174,1.729h0.074c0.527-0.577,1.099-1.059,1.716-1.445
		c0.618-0.387,1.289-0.581,2.014-0.581c0.922,0,1.642,0.202,2.161,0.605c0.519,0.403,0.901,0.968,1.148,1.692
		c0.625-0.692,1.255-1.248,1.89-1.668c0.634-0.42,1.321-0.629,2.062-0.629c1.235,0,2.153,0.396,2.755,1.186
		c0.601,0.791,0.901,1.959,0.901,3.507v7.608h-2.025v-7.336c0-1.137-0.181-1.955-0.544-2.458c-0.362-0.502-0.922-0.753-1.68-0.753
		c-0.906,0-1.911,0.618-3.014,1.853v8.695h-2.025v-7.336c0-1.137-0.182-1.955-0.543-2.458c-0.363-0.502-0.931-0.753-1.705-0.753
		c-0.906,0-1.91,0.618-3.014,1.853v8.695h-2.026V5.583z"/>
	<path fill="#901457" d="M42.759,18.601v4.051h-2.026V5.583h1.68l0.173,1.383h0.074c0.543-0.462,1.14-0.856,1.791-1.186
		c0.651-0.33,1.33-0.494,2.039-0.494c0.773,0,1.458,0.144,2.05,0.432c0.593,0.289,1.086,0.7,1.482,1.235
		c0.396,0.536,0.695,1.178,0.902,1.927c0.206,0.749,0.308,1.593,0.308,2.532c0,1.021-0.14,1.931-0.419,2.729
		c-0.28,0.799-0.659,1.479-1.137,2.038c-0.478,0.56-1.029,0.984-1.654,1.272c-0.626,0.288-1.285,0.433-1.977,0.433
		c-0.561,0-1.115-0.124-1.667-0.371c-0.552-0.248-1.108-0.584-1.667-1.013L42.759,18.601z M42.759,14.92
		c0.543,0.461,1.071,0.786,1.581,0.975c0.51,0.19,0.963,0.285,1.358,0.285c0.494,0,0.951-0.111,1.371-0.333s0.782-0.535,1.087-0.938
		c0.305-0.404,0.543-0.902,0.716-1.495c0.174-0.593,0.26-1.26,0.26-2.001c0-0.659-0.059-1.26-0.174-1.803
		c-0.114-0.543-0.3-1.009-0.556-1.396c-0.255-0.387-0.584-0.687-0.988-0.901c-0.404-0.214-0.885-0.321-1.445-0.321
		c-0.511,0-1.025,0.14-1.543,0.419c-0.519,0.28-1.075,0.684-1.668,1.21V14.92z"/>
	<path fill="#901457" d="M54.444,0h2.026v15.315c0,0.329,0.057,0.56,0.172,0.692s0.247,0.197,0.395,0.197c0.066,0,0.127,0,0.186,0
		c0.058,0,0.144-0.016,0.259-0.05l0.272,1.532c-0.132,0.066-0.288,0.115-0.469,0.148c-0.182,0.033-0.412,0.049-0.692,0.049
		c-0.774,0-1.326-0.231-1.655-0.692c-0.331-0.461-0.494-1.136-0.494-2.025V0z"/>
	<path fill="#901457" d="M61.78,3.112c-0.396,0-0.729-0.124-1-0.37c-0.272-0.248-0.408-0.56-0.408-0.939
		c0-0.396,0.136-0.712,0.408-0.951c0.271-0.239,0.605-0.358,1-0.358c0.395,0,0.728,0.12,1,0.358
		c0.272,0.238,0.408,0.555,0.408,0.951c0,0.379-0.136,0.691-0.408,0.939C62.508,2.989,62.175,3.112,61.78,3.112z M60.742,5.583
		h2.025v12.005h-2.025V5.583z"/>
	<path fill="#901457" d="M65.93,11.61c0-1.005,0.156-1.898,0.469-2.681c0.312-0.781,0.732-1.444,1.26-1.988
		c0.527-0.543,1.141-0.955,1.84-1.235c0.699-0.28,1.437-0.419,2.211-0.419c0.791,0,1.47,0.144,2.038,0.432
		c0.568,0.289,1.059,0.623,1.47,1.001l-1.012,1.309c-0.363-0.312-0.737-0.568-1.124-0.765c-0.387-0.198-0.819-0.297-1.297-0.297
		c-0.543,0-1.046,0.111-1.507,0.333c-0.461,0.223-0.857,0.541-1.186,0.952c-0.33,0.411-0.589,0.901-0.778,1.469
		c-0.189,0.568-0.284,1.198-0.284,1.89s0.09,1.318,0.271,1.877c0.182,0.56,0.432,1.042,0.754,1.445
		c0.321,0.404,0.712,0.716,1.173,0.939c0.461,0.222,0.963,0.333,1.506,0.333c0.577,0,1.099-0.119,1.569-0.358
		c0.469-0.238,0.885-0.522,1.248-0.853l0.914,1.334c-0.543,0.478-1.149,0.856-1.816,1.136c-0.667,0.28-1.363,0.42-2.087,0.42
		c-0.79,0-1.531-0.14-2.223-0.42c-0.691-0.28-1.289-0.687-1.791-1.222c-0.503-0.536-0.898-1.195-1.186-1.977
		C66.073,13.484,65.93,12.599,65.93,11.61z"/>
	<path fill="#901457" d="M79.121,3.112c-0.396,0-0.729-0.124-1-0.37c-0.272-0.248-0.407-0.56-0.407-0.939
		c0-0.396,0.135-0.712,0.407-0.951c0.271-0.239,0.605-0.358,1-0.358s0.728,0.12,1,0.358c0.272,0.238,0.408,0.555,0.408,0.951
		c0,0.379-0.136,0.691-0.408,0.939C79.849,2.989,79.516,3.112,79.121,3.112z M78.083,5.583h2.025v12.005h-2.025V5.583z"/>
	<path fill="#901457" d="M84.505,7.238h-1.778V5.706l1.877-0.123l0.247-3.36h1.705v3.36h3.236v1.655h-3.236v6.67
		c0,0.741,0.136,1.313,0.408,1.717c0.271,0.404,0.753,0.605,1.445,0.605c0.213,0,0.445-0.033,0.691-0.099
		c0.247-0.065,0.47-0.14,0.667-0.223l0.395,1.532c-0.329,0.115-0.688,0.218-1.074,0.309c-0.388,0.09-0.771,0.136-1.149,0.136
		c-0.643,0-1.182-0.1-1.618-0.297c-0.437-0.197-0.791-0.469-1.062-0.815c-0.272-0.346-0.466-0.766-0.581-1.26
		c-0.116-0.494-0.173-1.038-0.173-1.63V7.238z"/>
	<path fill="#901457" d="M92.138,21.01c0.165,0.041,0.321,0.062,0.469,0.062c0.692,0,1.255-0.243,1.692-0.729
		c0.436-0.485,0.778-1.099,1.025-1.84l0.271-0.889L90.78,5.583h2.099l2.446,6.645c0.181,0.528,0.375,1.083,0.581,1.668
		c0.205,0.584,0.399,1.156,0.58,1.717h0.099c0.181-0.544,0.354-1.112,0.519-1.705c0.164-0.593,0.33-1.152,0.494-1.68l2.15-6.645
		h1.976l-4.52,12.993c-0.215,0.593-0.454,1.145-0.717,1.656s-0.577,0.951-0.939,1.321c-0.362,0.371-0.774,0.663-1.234,0.877
		c-0.461,0.214-0.997,0.321-1.605,0.321c-0.281,0-0.536-0.021-0.766-0.062c-0.231-0.041-0.444-0.103-0.642-0.185l0.395-1.606
		C91.825,20.931,91.973,20.968,92.138,21.01z"/>
</g>
</svg>
