<?xml version="1.0" encoding="utf-8"?>
<!-- Generator: Adobe Illustrator 15.1.0, SVG Export Plug-In . SVG Version: 6.00 Build 0)  -->
<!DOCTYPE svg PUBLIC "-//W3C//DTD SVG 1.1//EN" "http://www.w3.org/Graphics/SVG/1.1/DTD/svg11.dtd">
<svg version="1.1" id="Ebene_1" xmlns="http://www.w3.org/2000/svg" xmlns:xlink="http://www.w3.org/1999/xlink" x="0px" y="0px"
	 width="174.526px" height="40.5px" viewBox="0 0 174.526 40.5" enable-background="new 0 0 174.526 40.5" xml:space="preserve">
<g>
	<path fill="#900055" d="M3.849,25.158C4.825,26.19,5.976,27.02,7.3,27.647c1.324,0.627,2.698,0.941,4.121,0.941c1.812,0,3.221-0.411,4.226-1.234
		c1.004-0.822,1.506-1.903,1.506-3.242c0-0.697-0.119-1.29-0.355-1.778c-0.237-0.487-0.559-0.906-0.962-1.255
		c-0.405-0.348-0.886-0.662-1.443-0.941c-0.558-0.278-1.158-0.571-1.799-0.878L8.66,17.545c-0.642-0.279-1.297-0.613-1.966-1.004
		c-0.669-0.39-1.27-0.864-1.799-1.422c-0.53-0.557-0.962-1.22-1.297-1.987c-0.334-0.767-0.502-1.652-0.502-2.657
		c0-1.031,0.216-1.993,0.648-2.886c0.432-0.892,1.031-1.666,1.799-2.322C6.31,4.612,7.217,4.103,8.263,3.74
		c1.046-0.362,2.196-0.544,3.451-0.544c1.645,0,3.165,0.314,4.56,0.941c1.394,0.627,2.579,1.443,3.556,2.447l-1.882,2.259
		C17.11,8.035,16.183,7.4,15.165,6.94c-1.018-0.46-2.168-0.69-3.451-0.69c-1.534,0-2.768,0.356-3.702,1.067
		C7.077,8.027,6.61,9.011,6.61,10.266c0,0.669,0.132,1.234,0.397,1.694c0.265,0.46,0.62,0.865,1.066,1.213
		c0.446,0.349,0.934,0.655,1.464,0.92c0.529,0.266,1.073,0.509,1.631,0.732l3.891,1.673c0.78,0.334,1.52,0.718,2.217,1.15
		c0.697,0.433,1.297,0.935,1.799,1.506c0.502,0.572,0.899,1.241,1.192,2.008c0.292,0.768,0.439,1.653,0.439,2.657
		c0,1.087-0.216,2.106-0.648,3.054c-0.433,0.949-1.053,1.778-1.861,2.489c-0.81,0.711-1.785,1.27-2.929,1.673
		s-2.44,0.606-3.89,0.606c-1.924,0-3.709-0.363-5.355-1.087c-1.646-0.725-3.068-1.715-4.267-2.97L3.849,25.158z"/>
	<path fill="#900055" d="M27.527,6.626c-0.669,0-1.234-0.209-1.694-0.627c-0.46-0.418-0.69-0.948-0.69-1.589c0-0.669,0.23-1.206,0.69-1.611
		c0.46-0.404,1.025-0.606,1.694-0.606s1.234,0.203,1.694,0.606c0.46,0.405,0.69,0.941,0.69,1.611c0,0.642-0.23,1.171-0.69,1.589
		C28.761,6.417,28.196,6.626,27.527,6.626z M25.77,10.81H29.2v20.331H25.77V10.81z"/>
	<path fill="#900055" d="M36.06,10.81h2.845l0.293,2.928h0.125c0.892-0.976,1.862-1.792,2.907-2.447c1.046-0.655,2.182-0.983,3.41-0.983
		c1.562,0,2.782,0.342,3.661,1.025c0.878,0.684,1.527,1.639,1.945,2.866c1.06-1.171,2.126-2.113,3.201-2.824
		c1.073-0.711,2.238-1.066,3.493-1.066c2.092,0,3.646,0.669,4.665,2.008c1.018,1.339,1.527,3.319,1.527,5.94v12.885H60.7V18.716
		c0-1.924-0.307-3.311-0.92-4.162c-0.614-0.851-1.562-1.276-2.845-1.276c-1.534,0-3.235,1.046-5.104,3.137v14.726h-3.43V18.716
		c0-1.924-0.308-3.311-0.92-4.162c-0.614-0.851-1.576-1.276-2.887-1.276c-1.534,0-3.235,1.046-5.104,3.137v14.726H36.06V10.81z"/>
	<path fill="#900055" d="M74.17,32.856v6.86H70.74V10.81h2.845l0.293,2.343h0.125c0.92-0.781,1.931-1.45,3.033-2.008
		c1.102-0.558,2.252-0.836,3.452-0.836c1.311,0,2.468,0.244,3.472,0.732c1.004,0.488,1.84,1.186,2.51,2.092
		c0.669,0.907,1.178,1.994,1.527,3.263s0.523,2.698,0.523,4.288c0,1.729-0.237,3.271-0.711,4.623
		c-0.475,1.353-1.116,2.503-1.924,3.452c-0.81,0.948-1.743,1.667-2.803,2.154c-1.061,0.487-2.176,0.732-3.347,0.732
		c-0.949,0-1.89-0.209-2.824-0.627c-0.935-0.418-1.876-0.99-2.824-1.715L74.17,32.856z M74.17,26.623
		c0.92,0.781,1.812,1.332,2.677,1.652c0.864,0.321,1.631,0.481,2.301,0.481c0.837,0,1.611-0.188,2.322-0.565
		c0.711-0.376,1.324-0.906,1.841-1.59c0.516-0.683,0.92-1.527,1.213-2.531c0.293-1.004,0.439-2.134,0.439-3.389
		c0-1.115-0.098-2.133-0.293-3.054c-0.195-0.92-0.509-1.708-0.941-2.364c-0.433-0.655-0.991-1.164-1.674-1.527
		c-0.684-0.362-1.499-0.544-2.447-0.544c-0.865,0-1.736,0.237-2.614,0.711c-0.878,0.475-1.82,1.158-2.824,2.05V26.623z"/>
	<path fill="#900055" d="M93.958,1.355h3.431v25.937c0,0.558,0.097,0.948,0.292,1.171c0.195,0.224,0.418,0.334,0.669,0.334c0.111,0,0.216,0,0.314,0
		c0.097,0,0.244-0.027,0.439-0.083l0.46,2.594c-0.224,0.111-0.488,0.195-0.795,0.251c-0.307,0.056-0.697,0.083-1.171,0.083
		c-1.311,0-2.245-0.391-2.803-1.171c-0.558-0.78-0.837-1.924-0.837-3.43V1.355z"/>
	<path fill="#900055" d="M106.382,6.626c-0.669,0-1.234-0.209-1.694-0.627c-0.46-0.418-0.69-0.948-0.69-1.589c0-0.669,0.23-1.206,0.69-1.611
		c0.46-0.404,1.025-0.606,1.694-0.606s1.234,0.203,1.694,0.606c0.46,0.405,0.69,0.941,0.69,1.611c0,0.642-0.23,1.171-0.69,1.589
		C107.616,6.417,107.051,6.626,106.382,6.626z M104.625,10.81h3.431v20.331h-3.431V10.81z"/>
	<path fill="#900055" d="M113.409,21.017c0-1.701,0.265-3.214,0.795-4.539c0.529-1.324,1.241-2.447,2.133-3.368s1.931-1.617,3.117-2.092
		c1.185-0.474,2.433-0.711,3.744-0.711c1.339,0,2.489,0.244,3.451,0.732c0.962,0.488,1.792,1.053,2.489,1.694l-1.715,2.217
		c-0.614-0.53-1.249-0.962-1.903-1.297c-0.656-0.335-1.388-0.502-2.196-0.502c-0.92,0-1.771,0.188-2.552,0.564
		c-0.781,0.376-1.451,0.914-2.008,1.611c-0.558,0.697-0.997,1.527-1.317,2.489c-0.321,0.962-0.481,2.029-0.481,3.201
		s0.153,2.231,0.46,3.179c0.307,0.948,0.732,1.764,1.276,2.447c0.544,0.684,1.206,1.213,1.987,1.59
		c0.78,0.376,1.631,0.564,2.552,0.564c0.976,0,1.861-0.202,2.656-0.606c0.795-0.404,1.499-0.885,2.113-1.443l1.548,2.259
		c-0.92,0.809-1.945,1.45-3.075,1.924c-1.13,0.474-2.308,0.711-3.535,0.711c-1.339,0-2.594-0.237-3.765-0.711
		c-1.171-0.474-2.183-1.165-3.033-2.071c-0.851-0.906-1.521-2.022-2.008-3.347C113.653,24.19,113.409,22.69,113.409,21.017z"/>
	<path fill="#900055" d="M135.748,6.626c-0.669,0-1.234-0.209-1.694-0.627c-0.46-0.418-0.69-0.948-0.69-1.589c0-0.669,0.23-1.206,0.69-1.611
		c0.46-0.404,1.025-0.606,1.694-0.606s1.234,0.203,1.694,0.606c0.46,0.405,0.69,0.941,0.69,1.611c0,0.642-0.23,1.171-0.69,1.589
		C136.982,6.417,136.417,6.626,135.748,6.626z M133.991,10.81h3.431v20.331h-3.431V10.81z"/>
	<path fill="#900055" d="M144.867,13.612h-3.012v-2.594l3.18-0.209l0.418-5.689h2.887v5.689h5.48v2.803h-5.48v11.295c0,1.255,0.23,2.225,0.69,2.908
		c0.46,0.684,1.276,1.025,2.447,1.025c0.362,0,0.753-0.056,1.171-0.167c0.418-0.111,0.795-0.236,1.13-0.376l0.669,2.594
		c-0.558,0.195-1.165,0.369-1.819,0.523c-0.656,0.153-1.304,0.23-1.945,0.23c-1.088,0-2.001-0.167-2.74-0.502
		c-0.739-0.334-1.339-0.795-1.799-1.38c-0.46-0.586-0.789-1.297-0.983-2.134c-0.196-0.836-0.293-1.757-0.293-2.761V13.612z"/>
	<path fill="#900055" d="M157.793,36.935c0.279,0.069,0.544,0.104,0.795,0.104c1.171,0,2.126-0.412,2.866-1.234
		c0.739-0.823,1.318-1.862,1.736-3.117l0.46-1.506l-8.158-20.373h3.556l4.142,11.253c0.307,0.893,0.634,1.834,0.983,2.824
		c0.348,0.99,0.676,1.959,0.983,2.907h0.167c0.307-0.92,0.599-1.882,0.878-2.887c0.278-1.004,0.558-1.952,0.836-2.845l3.64-11.253
		h3.347l-7.655,22.004c-0.363,1.004-0.768,1.938-1.213,2.803c-0.446,0.864-0.977,1.611-1.59,2.238
		c-0.614,0.627-1.311,1.122-2.091,1.485c-0.781,0.362-1.688,0.544-2.719,0.544c-0.475,0-0.907-0.035-1.297-0.104
		c-0.391-0.07-0.753-0.175-1.088-0.314l0.669-2.719C157.264,36.802,157.515,36.865,157.793,36.935z"/>
</g>
</svg>
